<?xml version="1.0" standalone="no"?>
<!DOCTYPE svg PUBLIC "-//W3C//DTD SVG 1.1//EN" "http://www.w3.org/Graphics/SVG/1.1/DTD/svg11.dtd">
<svg t="1583734853771" class="icon" viewBox="0 0 1024 1024" version="1.1" xmlns="http://www.w3.org/2000/svg" p-id="1550" xmlns:xlink="http://www.w3.org/1999/xlink" width="200" height="200">
  <defs>
    <style type="text/css"></style>
  </defs>
  <path d="M854.186667 704.853333H768a17.066667 17.066667 0 1 1 0-34.133333h44.987733L598.186667 455.918933l-73.2672 73.2672a17.0496 17.0496 0 0 1-24.132267 0l-73.2672-73.2672L212.718933 670.72H256a17.066667 17.066667 0 1 1 0 34.133333h-84.48c-66.884267 0-103.253333-36.369067-103.253333-102.4v-426.666666c0-33.058133 9.181867-58.6752 27.306666-76.1856C113.032533 82.193067 138.308267 73.386667 170.666667 73.386667h682.666666c33.024 0 58.897067 9.147733 76.919467 27.204266C947.165867 117.486933 955.733333 142.779733 955.733333 175.786667v426.666666c0 65.3824-35.976533 101.751467-101.341866 102.4h-0.2048zM109.533867 137.949867C104.789333 147.9168 102.4 160.5632 102.4 175.786667v426.666666c0 45.141333 19.234133 66.3552 62.173867 68.1472L403.387733 431.786667 109.533867 137.949867z m512.802133 293.853866L861.013333 670.481067C902.843733 668.040533 921.6 646.792533 921.6 602.453333v-426.666666c0-14.677333-2.013867-26.862933-6.007467-36.4544L622.336 431.803733z m-182.749867-12.0832l73.2672 73.2672 73.2672-73.2672 0.017067-0.017066L891.8528 114.807467C881.578667 109.960533 868.693333 107.52 853.333333 107.52H170.666667c-14.626133 0-26.897067 2.218667-36.676267 6.6048l305.595733 305.595733z" p-id="1551" fill="#2c2c2c"></path>
  <path d="M512 968.533333h-0.3584a34.1504 34.1504 0 0 1-33.792-34.491733l0.853333-84.48v-164.7104l-112.401066 112.401067a34.133333 34.133333 0 1 1-48.264534-48.264534l170.666667-170.666666 0.034133-0.034134a33.928533 33.928533 0 0 1 28.535467-9.6768 33.979733 33.979733 0 0 1 19.8656 9.898667l170.478933 170.478933a34.133333 34.133333 0 1 1-48.264533 48.264534l-112.401067-112.401067L546.133333 934.7584a34.133333 34.133333 0 0 1-34.133333 33.774933z" p-id="1552" fill="#2c2c2c"></path>
</svg>